<svg version="1" xmlns="http://www.w3.org/2000/svg" width="396" height="396" viewBox="0 0 297.000000 297.000000"><path d="M144.6 6.2c-1.5 2.9-3.6 6.8-4.7 8.5-1 1.8-1.5 3.3-1.1 3.3.4 0-.1.5-1 1.1-1 .5-1.8 1.4-1.8 1.9 0 .9-4 7.3-6 9.7-.6.7-.7 1.3-.3 1.3.4 0 0 .5-1 1.1-1.4.8-1.6 1.4-.6 2.5.9 1.1.9 1.3-.2 1-.9-.3-2.7 1.6-4.9 5.1-1.9 3.1-4 6.1-4.5 6.7-.6.6-3.3 4.2-6 8.1-2.7 3.8-5.3 7.3-5.8 7.6-.5.4-.6 1.2-.3 1.8.4.6.1 1.1-.7 1.1-1.4 0-3.2 2.7-2.9 4.3.1.4-.3.6-1 .5-.7-.2-1.2.1-1.3.7 0 .5-1.4 2.5-3 4.3-1.7 1.9-3 3.7-3 4.1 0 .7-1.9 3.1-4.9 6.1-1.1 1.1-1.6 2-1.2 2 .4 0-.5 1.2-1.9 2.7-4.1 4.5-10.5 14-9.8 14.7.3.3-.1.6-1 .6s-1.7.7-1.7 1.5-.5 1.5-1.2 1.5c-.6 0-.9.3-.5.6.3.4-.1 1.3-.9 2.1-.8.9-1.3 2.2-1 2.9.3.8 0 1.1-.8.8-.7-.3-1.6.3-2 1.3-.3 1-1.5 3.1-2.5 4.8-3.8 5.9-7 12.3-6.4 12.9.4.3.1.6-.6.6s-.9.4-.6 1c.3.5.2 1-.3 1-1.7 0-3.2 4.6-1.9 5.9.9.9.8 1.1-.4.6-1.2-.5-1.8.1-2.4 2.2-.3 1.5-.6 2.9-.5 3.1.1.2-.6 1.5-1.5 2.9-1.2 1.7-1.3 2.3-.4 1.7 1.1-.6 1.2-.4.4.7-1.3 1.8-3.2 7.4-4 11.6-.3 1.8-.9 4.3-1.5 5.7-.6 1.7-.5 2.6.3 3 .9.3.8.5-.1.5-.7.1-1.1.5-.8 1 .4.5.2 2-.3 3.2-.6 1.8-.4 2.7.8 3.7.9.7 1.1 1.1.4.8-.6-.4-1.4.3-1.8 1.4-.8 2.5-.3 21 .5 21 .4 0 .7 1.5.7 3.2 0 4.3.8 9 2.1 11.4.5 1.1.7 2.5.4 3.3-.3 1 0 1.2 1.1.8.9-.3 1.9-.1 2.3.5.4.6.3.8-.4.4-1.8-1.1-2.2.9-.6 3.8.7 1.6 1.4 3.7 1.4 4.7 0 1.1.5 1.9 1 1.9.6 0 1 .7 1 1.6 0 .8.4 1.2 1 .9.5-.3.7 0 .4.8-.3.8.1 2.1.9 2.9.8.8 1.7 2.3 2.1 3.3.3 1.1 1.7 3.2 3.1 4.7 1.4 1.5 2.5 3.1 2.5 3.6 0 .4 3.1 4.1 7 8.1 4.5 4.8 7.3 7 8.2 6.5.7-.4 1-.3.5.1-.8.9 3 5.5 4.5 5.5.5 0 2 1 3.3 2.3 1.4 1.2 4.2 3.1 6.2 4.2 2.1 1 5 2.8 6.5 3.8 1.6 1 2.8 1.5 2.8 1.2 0-.4 1.6.3 3.5 1.5s3.5 1.8 3.5 1.5c0-.4.6-.2 1.3.4.8.6 2.2 1.2 3.3 1.4 1 .1 2.4.5 2.9.8.9.6 7 2 10.5 2.5.8.1 2.6.4 4 .7 1.4.3 3.5.8 4.8 1.1 1.6.3 2 .1 1.5-.7-.5-.9-.3-.9.8-.1 2.2 1.6 7.8 1.7 9.6.2 1.2-.9 1.5-.9.9-.1-.5.9-.1 1.3 1.1 1.3 1.1 0 2.5-.6 3.2-1.3 1.1-1 1.2-.9.6.1-.8 1.6 2.6 1.3 3.7-.3.5-.6.8-.5.8.2s.7 1 1.6.6c1.7-.6 4.2-1 8.7-1.2 1.9-.1 2.6-.5 2.1-1.3-.4-.7-.3-.8.4-.4.6.4 3.1.2 5.4-.5 2.4-.6 4.8-1.2 5.3-1.4 5-1.1 18.4-7.8 17.8-8.8-.3-.6-.1-.7.6-.3.6.4 1.9.2 2.8-.5.8-.7 2.5-1.8 3.7-2.4 1.1-.7 2-1.7 1.9-2.3-.2-.6.4-.9 1.2-.6.8.4 1.5.1 1.5-.5s.5-1.1 1.2-1.1c.6 0 2.4-1.4 4-3.2 1.5-1.7 2.8-2.9 2.8-2.5 0 .4 1.8-1.2 4-3.4 3.4-3.5 3.8-4.4 2.8-5.8-1-1.3-1-1.4.1-.4 1 .8 1.8.7 3.2-.5 1-.9 1.9-2.2 1.9-2.8 0-.7.7-1.4 1.5-1.8.8-.3 1.4-1.1 1.3-1.8-.2-.7.3-1.2 1-1 1.1.2 1.6-1 1.3-3.1 0-.4.3-.7.9-.7.5 0 1-.6 1-1.4 0-.8.3-1.6.8-1.8 1.4-.6 5.9-10.8 5.1-11.4-.5-.3-.9-1.1-.8-1.7 0-.9.2-.9.6 0 .2.7 1 1.3 1.6 1.3.5 0 .7-.3.4-.7-.4-.3-.3-1.1.2-1.7 1.9-2.5 2.9-7.4 1.8-8.6-.9-.9-.8-1.1.3-.8 1 .2 1.4-.4 1.3-2-.2-1.2.2-2.2.8-2.2.7 0 1-1.4.7-3.4-.2-1.9-.1-3.3.3-3 .5.2.8-.4.9-1.3.8-20.8.8-23.3-.2-22.7-.6.4-.6-.1.1-1.4.7-1.4.8-2.3.1-2.7-.6-.4-.8-1.1-.4-1.6.3-.6-.2-1.7-1.2-2.5-1.1-.9-1.3-1.2-.5-.8 1.1.6 1.3-.1.7-3.4-.3-2.2-1.1-5.3-1.8-6.9-.6-1.5-1.2-3-1.3-3.3-.4-1.9-3.1-9.1-4.3-12-.9-1.9-1.6-3.9-1.6-4.3-.1-.4-.8-1.2-1.6-1.7s-1.1-1-.6-1c.5 0 .3-.6-.3-1.3-.6-.8-.8-1.7-.4-2 .3-.4.1-.7-.6-.7s-.9-.5-.6-1c.3-.5-.2-1-1.2-1s-1.4-.3-.8-.8c.7-.4.2-2.4-1.5-5.5-1.5-2.6-3-4.4-3.4-4-.4.4-.4 0 0-1 .3-.9.2-1.7-.3-1.7s-1.5-1.6-2.3-3.5c-.8-1.9-1.7-3.5-2-3.5-.4 0-1.9-2.3-3.4-5-1.5-2.8-3.2-5-3.7-5-.6 0-.7-.5-.4-1 .3-.6.1-1-.4-1-.6 0-1.1-.6-1.1-1.4 0-.8-.8-2.1-1.7-2.8-1-.7-1.9-2-2.1-2.8-.2-.8-.8-1.7-1.3-1.8-.5-.2-.9-1-.9-1.8s-.4-1.4-1-1.4c-.5 0-1-.6-1-1.3 0-.8-.9-2.2-2-3.2s-2-2.4-2-3.2c0-.7-.6-1.6-1.4-1.9-.8-.3-1.6-1.5-1.9-2.6-.4-1.3-1-1.7-1.8-1.2-.7.4-1 .3-.5-.4.7-1.1-7.9-14.2-9.4-14.2-.4 0-.7-.8-.6-1.8 0-1-.5-1.6-1.4-1.4-.8.2-1.2 0-.8-.4.8-.8-2.2-6.4-3.4-6.4-.4 0-.8-.7-.8-1.5s-.4-1.5-1-1.5c-.5 0-1-.5-1-1 0-1.7-4.2-7-5.1-6.4-.5.3-.6-.2-.3-1.1.4-.9-.2-2.3-1.5-3.4-1.1-1-1.8-2.1-1.4-2.5.3-.3.1-.6-.5-.6-.7 0-1.2-.7-1.2-1.5s-.4-1.5-1-1.5c-.5 0-1-.7-1-1.5s-.4-1.5-1-1.5c-.5 0-1-.5-1-1.1 0-.5-1.8-3.7-4-6.9s-4-6.4-4-6.9c0-.6-.4-1.1-1-1.1-.5 0-1-.7-1-1.5s-.4-1.5-1-1.5c-.5 0-1-.7-1-1.5s-.4-1.5-1-1.5c-.5 0-.9-.6-.7-1.3.1-.6-.4-1.1-1.1-.9-.8.1-1.1-.1-.8-.6.5-.9-2.3-7.2-3.4-7.2-.4 0-1.9 2.4-3.4 5.2zM124 45.6c0 .8-1.9 1.3-2.4.6-.3-.5.1-.9.9-.9s1.5.2 1.5.3zM54.7 150.5c0 .8-.4 1.2-.9.9-.5-.3-.6-1-.3-1.5.9-1.3 1.2-1.1 1.2.6zM184.5 288c.3.5.1 1-.4 1-.6 0-1.1-.5-1.1-1 0-.6.2-1 .4-1 .3 0 .8.4 1.1 1z"/></svg>