<svg version="1" xmlns="http://www.w3.org/2000/svg" width="1600" height="1600" viewBox="0 0 1200.000000 1200.000000"><path d="M574.7 1.9c-1.1.4-2.7 2.9-3.7 5.6-7.5 20.8-23.1 63.7-23.9 65.6-.6 1.3-4.2 11.2-8 21.9s-12 33.2-18.1 50c-6.2 16.8-11.3 30.9-11.4 31.5-.2.5-.9 2.3-1.6 4-.6 1.6-1.6 4.1-2 5.5-1.2 3.7-19.9 55.2-20.9 57.5-1.3 2.8-34.1 93.9-34.1 94.5 0 .3 25.5.5 56.8.6 60.3 0 64.3.2 76.5 3.3 29.8 7.7 50 29.3 54.4 58.1 1.5 9.4.6 25.6-1.7 34.5-1.4 5.2-7.8 24.4-9 27-.5 1.1-2.7 6.9-4.9 13-10.1 28.4-25.3 70.3-26.3 72.5-.5 1.4-2.3 6.3-4 11-1.6 4.7-3.3 9.4-3.7 10.5-.5 1.1-2 5.1-3.4 9-5.7 15.7-23.1 63.6-26.2 72-18.7 51.9-33.8 93.4-34.5 95-.5 1.1-1.8 4.5-2.8 7.5-3.5 10.2-37.6 103.9-39.2 107.7-.6 1.4-1.9 2.3-3.2 2.4h-123c-1.5-.1-1.4-.6.4-5.4 2.3-6.1 52.6-144 67-183.7 5.4-15.1 10.6-28.9 11.4-30.7.8-1.7 1.4-3.5 1.4-4 0-.4 1.6-5.1 3.6-10.3 2-5.2 3.7-10 3.8-10.5.2-.6.6-1.7.9-2.5.4-.8 1.6-4.2 2.7-7.5 1.2-3.3 2.5-6.9 3-8 .4-1.1 1.9-5.2 3.3-9 1.4-3.9 5.4-14.7 8.8-24 3.4-9.4 7.6-21.1 9.4-26 6.1-16.9 28.4-78.2 29.4-80.6 1.7-4.2 15.1-41.6 15.1-42.2 0-.4-21.4-.7-47.5-.6l-47.4.1-2.2 5.6c-1.1 3.2-5.1 14.2-8.9 24.7-3.7 10.4-7.3 20.1-7.8 21.5-.6 1.4-2.2 5.6-3.6 9.5-5.8 16.3-9.8 27.2-11.1 30.5-.8 1.9-4.6 12.3-8.4 23.1-3.9 10.8-7.5 20.7-8 22-.6 1.3-5.8 15.7-11.7 31.9-5.8 16.2-12.8 35.3-15.4 42.5-2.7 7.1-7.1 19.3-9.8 27-5.7 15.8-23.2 63.6-26.9 73.5-1.4 3.6-2.9 8.1-3.5 10-.5 1.9-1.6 4.8-2.3 6.5-.7 1.6-7.3 19.4-14.6 39.5-7.2 20.1-14.7 40.8-16.6 46-1.9 5.2-5.1 14-7 19.5-2 5.5-3.9 10.4-4.3 10.8-.5.5-29.1.9-63.6.9-52.2 0-62.9-.2-62.6-1.4.3-1.6 12-34.4 13.2-37.3.9-1.9 16.5-44.6 25-68.5 2.1-5.8 16.3-44.7 31.5-86.5s29.4-80.7 31.5-86.5c12.7-35.2 32.7-90.3 34.1-93.5 1-2.6 17.4-47.9 20.4-56.5 1.3-3.6 9.8-27 19-52s18.2-50 20.2-55.5c1.9-5.5 3.9-10.9 4.4-12 .5-1.1 2.4-6.3 4.3-11.5 4.3-12.4 18.9-52.6 27.5-76 3.8-10.2 9.2-25 12.1-33 6.6-18.4 11.9-32.8 16.5-45.5 2-5.5 4.4-12.3 5.4-15 1-2.8 10.2-28 20.5-56.1C429.6 47.2 438 24 438 23.6c0-.3-1-.1-2.2.4-1.3.5-5 1.6-8.3 2.6-18 5.1-48.3 16.3-70 25.9-11 4.9-43 20.8-48.4 24-.9.6-5 2.9-9.1 5.3-18.6 10.6-55 35.1-67.5 45.4-1.1.9-6.3 5.1-11.5 9.3-18.7 15.1-50 44.6-63.1 59.5-7.3 8.4-24.8 28.9-26.5 31.1-1 1.4-6.5 8.7-12.1 16.2-29.5 39.1-55.2 85.1-76.3 136.2-4.6 11.2-15.8 44.1-18.5 54.5-3.9 14.8-11.4 45.5-11.8 48.5-.4 2.2-1.4 7.8-2.3 12.5-.9 4.7-1.8 9.8-1.9 11.5-.2 1.6-.6 4.3-.9 6-.3 1.6-.8 5.2-1.2 8-.3 2.7-.7 6.1-.9 7.5-.2 1.4-.7 5.6-1 9.5-.3 3.8-.8 8.3-1 10-2.5 19.6-2.6 81.8-.1 105 .2 1.6.7 6.6 1.2 11 .4 4.4.8 8.2.9 8.5.1.3.5 3.4.9 7 1 8.2 1.5 11.7 2.3 15.5.3 1.6.7 4.1.9 5.5.1 1.4.7 5 1.3 8 .6 3 1.2 6.6 1.5 8 2.3 12.5 9.4 41.1 13.7 55.5 34.1 111.7 98.1 209.7 185.5 284.1 12.4 10.6 14 11.8 27.9 22.3 44.2 33.4 96.3 62.4 144.6 80.5 6.8 2.6 13.3 5.1 14.4 5.6 2 .9 20.9 7 33.5 10.8 14.3 4.3 28.1 7.5 29 6.6.4-.5 7.4-19.1 15.5-41.4 19.2-52.7 21.8-60 25-69 1.5-4.1 3-8.4 3.5-9.5.5-1.1 4.5-12.1 9-24.5 4.4-12.4 8.4-23.4 8.9-24.5.5-1.1 4.3-11.7 8.5-23.5s8.1-22.4 8.6-23.5c.5-1.1 5.9-16 12.1-33 6.1-17.1 12.4-34.4 13.9-38.5a41924.583 41924.583 0 0 0 29.5-81c11.4-31.1 20.9-57 24.5-67 11.6-32.5 22.3-61.9 23.5-64.5.7-1.7 1.6-4.1 2-5.5.4-1.4 1.7-5.2 3-8.5s7.6-20.6 14-38.5 12-33.4 12.5-34.5c.5-1.1 4.6-12.1 9.1-24.5 4.4-12.4 12.5-34.7 17.9-49.5 5.4-14.9 10.7-29.5 11.8-32.5 1.7-4.7 7-19.2 18.2-50 1.5-4.1 10-27.4 18.8-51.7 8.8-24.3 16.5-45 17-46 1-1.8 5.7-1.8 123.4-1.7 92.2.1 123.9.4 128.8 1.3 27.9 5.3 47.4 19 57.4 40.4 7.6 16.4 9 35.4 4 55.2-.9 3.3-16.9 48.1-35.6 99.5-18.7 51.4-36.7 100.9-40 110-3.3 9.1-7.4 20.5-9.3 25.5-1.8 4.9-8.1 22.3-13.9 38.5-5.9 16.2-12 32.9-13.5 37-1.6 4.1-7.6 20.5-13.4 36.5-14.6 40.2-15.4 41.9-25.7 52.9-9.7 10.4-27.2 21.3-38.5 24-11.3 2.7-15.7 2.8-99.9 3l-87.1.1-6.2 17c-3.4 9.3-6.4 17.7-6.7 18.5-.3.8-1.8 5.1-3.4 9.5-1.7 4.4-4.8 12.9-7 19-9.1 25.4-28.4 78.3-29.9 82-.8 2.2-2.6 6.9-3.8 10.5-2.5 7.3-30.6 84.6-35.5 97.5-3.5 9.5-11.2 30.9-12 33.4-.5 1.4-4.5 12.5-8.9 24.5-4.5 12.1-8.1 22.5-8.1 23.2 0 .9 5.9 1.1 24.3.9 13.3-.2 27.6-.6 31.7-.9 4.1-.3 10.4-.8 14-1.1 3.6-.3 8.5-.8 11-1.1 2.5-.3 5.9-.7 7.5-.9 1.7-.2 5.3-.7 8-1 34-4.2 75.6-13.8 109.5-25.2 22.5-7.6 54-20.2 67.5-27.1 2.2-1.1 7.8-3.9 12.5-6.2 15.3-7.6 28.5-14.9 42-23.3 7.4-4.6 28-17.8 29.5-19 .6-.4 7.8-5.7 16-11.8 17.5-13 30.1-23.2 41.4-33.6 2.5-2.3 5.7-5.1 7.1-6.3 3.9-3.3 17.5-16.8 28-27.7 52.5-54.3 96.1-122.5 124.6-195 9.7-24.7 19.1-54.6 24.8-78.8 2.6-11.3 6.6-30.5 7.1-34 .2-1.1 1-6.3 1.8-11.5.9-5.2 1.9-11.5 2.2-14 .3-2.5.8-5.6 1-7 .2-1.4.7-6.1 1-10.5.4-4.4.9-9.4 1-11 2.6-24.4 2.6-77.5.1-103-.2-1.7-.7-6.4-1.1-10.5-.4-4.1-.9-8.7-1.1-10.3-.8-6.7-2.5-18.6-2.9-20.7-.3-1.3-.7-4.2-1-6.5-5-34.7-20.4-89-36.2-127.5-7.8-19-22.4-49.3-29.2-60.8-1.7-2.9-3.1-5.5-3.1-5.8 0-.3-1.5-2.8-3.3-5.7-1.8-2.9-3.8-6.3-4.4-7.7-2-4-17.3-27.4-26.7-40.5-12.8-18-33.4-43.5-46-56.9-45.5-48.5-91.4-85.1-145.1-115.8-22.1-12.7-52.1-27.3-70-34.2-3.8-1.5-7.9-3.2-9-3.7-3.9-1.7-26.1-9.6-35-12.3-4.9-1.6-11.7-3.7-15-4.7C752.4 20.2 715.8 12 699 9.4c-1.9-.2-4.8-.8-6.5-1.1-3.4-.7-4.6-.9-12.5-1.8-3-.3-6.6-.8-8-1-1.4-.2-5.2-.6-8.5-.9-5.8-.6-9.1-.9-24-2.2-10.1-.8-62.7-1.2-64.8-.5z"/><path d="M866.1 419.2c-.5 1.3-6.8 18.7-14 38.8-7.3 20.1-13.7 37.4-14.2 38.5-.5 1.1-1.3 3.3-1.8 5-.5 1.6-5.7 16-11.6 32-5.8 15.9-12.9 35.3-15.7 43-2.8 7.7-7.3 20.1-10 27.5-2.7 7.4-8.1 22.3-12 33-3.8 10.7-7.3 20.4-7.8 21.5-.9 1.8-18.3 49.7-28 76.5-2.1 5.8-6.8 18.8-10.5 28.8-3.6 10.1-6.5 18.6-6.2 18.8.5.5 93.9.6 94.4 0 .2-.1 6-15.8 12.9-34.7 6.9-18.9 13.1-36 13.9-37.9.8-1.9 4.4-11.8 8-22 3.7-10.2 8.2-22.6 10-27.5 1.9-5 6.1-16.7 9.5-26 3.4-9.4 20.2-55.3 37.2-102 17-46.8 32.3-88.6 33.9-93 1.5-4.4 4-11.1 5.4-14.9 1.4-3.8 2.5-7.1 2.5-7.2 0-.2-21.4-.4-47.5-.4H867l-.9 2.2z"/></svg>